<mxfile host="65bd71144e">
    <diagram name="inline" id="EhBHCzVJ7koz5qkcn5ls">
        <mxGraphModel dx="854" dy="997" grid="1" gridSize="10" guides="1" tooltips="1" connect="1" arrows="1" fold="1" page="1" pageScale="1" pageWidth="850" pageHeight="1100" math="0" shadow="0">
            <root>
                <mxCell id="0"/>
                <mxCell id="1" parent="0"/>
                <mxCell id="g-pKKwxOlW_QokfDof8I-2" value="" style="rounded=1;whiteSpace=wrap;html=1;arcSize=7;" parent="1" vertex="1">
                    <mxGeometry x="40" y="440" width="760" height="160" as="geometry"/>
                </mxCell>
                <mxCell id="g-pKKwxOlW_QokfDof8I-5" value="" style="rounded=1;whiteSpace=wrap;html=1;arcSize=7;" parent="1" vertex="1">
                    <mxGeometry x="50" y="450" width="180" height="140" as="geometry"/>
                </mxCell>
                <mxCell id="g-pKKwxOlW_QokfDof8I-6" value="" style="rounded=1;whiteSpace=wrap;html=1;arcSize=7;" parent="1" vertex="1">
                    <mxGeometry x="300" y="450" width="490" height="140" as="geometry"/>
                </mxCell>
                <mxCell id="g-pKKwxOlW_QokfDof8I-7" value="" style="rounded=1;whiteSpace=wrap;html=1;arcSize=7;" parent="1" vertex="1">
                    <mxGeometry x="310" y="460" width="150" height="80" as="geometry"/>
                </mxCell>
                <mxCell id="g-pKKwxOlW_QokfDof8I-8" value="" style="rounded=1;whiteSpace=wrap;html=1;arcSize=7;" parent="1" vertex="1">
                    <mxGeometry x="470" y="460" width="150" height="80" as="geometry"/>
                </mxCell>
                <mxCell id="g-pKKwxOlW_QokfDof8I-9" value="" style="rounded=1;whiteSpace=wrap;html=1;arcSize=7;" parent="1" vertex="1">
                    <mxGeometry x="630" y="460" width="150" height="80" as="geometry"/>
                </mxCell>
                <mxCell id="g-pKKwxOlW_QokfDof8I-10" value="" style="shape=flexArrow;endArrow=classic;startArrow=classic;html=1;rounded=0;entryX=0;entryY=0.5;entryDx=0;entryDy=0;exitX=1;exitY=0.5;exitDx=0;exitDy=0;" parent="1" source="g-pKKwxOlW_QokfDof8I-5" target="g-pKKwxOlW_QokfDof8I-6" edge="1">
                    <mxGeometry width="100" height="100" relative="1" as="geometry">
                        <mxPoint x="230" y="499.5" as="sourcePoint"/>
                        <mxPoint x="290" y="499.5" as="targetPoint"/>
                    </mxGeometry>
                </mxCell>
                <mxCell id="g-pKKwxOlW_QokfDof8I-12" value="cohesive elements" style="text;html=1;align=center;verticalAlign=middle;whiteSpace=wrap;rounded=0;" parent="1" vertex="1">
                    <mxGeometry x="477.5" y="550" width="135" height="30" as="geometry"/>
                </mxCell>
                <mxCell id="Oo0hzxDEwphJoSgqDvbS-1" value="" style="edgeStyle=none;html=1;" edge="1" parent="1" source="g-pKKwxOlW_QokfDof8I-13" target="g-pKKwxOlW_QokfDof8I-6">
                    <mxGeometry relative="1" as="geometry"/>
                </mxCell>
                <mxCell id="g-pKKwxOlW_QokfDof8I-13" value="force" style="text;html=1;align=center;verticalAlign=middle;whiteSpace=wrap;rounded=0;" parent="1" vertex="1">
                    <mxGeometry x="240" y="540" width="50" height="30" as="geometry"/>
                </mxCell>
            </root>
        </mxGraphModel>
    </diagram>
    <diagram id="yDwLrCUgeOxH4rRCfzwO" name="line-break">
        <mxGraphModel dx="854" dy="997" grid="1" gridSize="10" guides="1" tooltips="1" connect="1" arrows="1" fold="1" page="1" pageScale="1" pageWidth="850" pageHeight="1100" math="0" shadow="0">
            <root>
                <mxCell id="0"/>
                <mxCell id="1" parent="0"/>
                <mxCell id="Gb6ZNdhN57Kff-KXvGva-1" value="" style="rounded=1;whiteSpace=wrap;html=1;arcSize=3;" vertex="1" parent="1">
                    <mxGeometry x="230" y="390" width="360" height="350" as="geometry"/>
                </mxCell>
                <mxCell id="Gb6ZNdhN57Kff-KXvGva-2" value="" style="rounded=1;whiteSpace=wrap;html=1;arcSize=7;" vertex="1" parent="1">
                    <mxGeometry x="240" y="400" width="330" height="140" as="geometry"/>
                </mxCell>
                <mxCell id="Gb6ZNdhN57Kff-KXvGva-3" value="" style="rounded=1;whiteSpace=wrap;html=1;arcSize=7;" vertex="1" parent="1">
                    <mxGeometry x="240" y="610" width="340" height="120" as="geometry"/>
                </mxCell>
                <mxCell id="Gb6ZNdhN57Kff-KXvGva-4" value="" style="rounded=1;whiteSpace=wrap;html=1;arcSize=7;" vertex="1" parent="1">
                    <mxGeometry x="250" y="620" width="100" height="80" as="geometry"/>
                </mxCell>
                <mxCell id="Gb6ZNdhN57Kff-KXvGva-5" value="" style="rounded=1;whiteSpace=wrap;html=1;arcSize=7;" vertex="1" parent="1">
                    <mxGeometry x="360" y="620" width="100" height="80" as="geometry"/>
                </mxCell>
                <mxCell id="Gb6ZNdhN57Kff-KXvGva-6" value="" style="rounded=1;whiteSpace=wrap;html=1;arcSize=7;" vertex="1" parent="1">
                    <mxGeometry x="470" y="620" width="100" height="80" as="geometry"/>
                </mxCell>
                <mxCell id="Gb6ZNdhN57Kff-KXvGva-8" value="cohesive elements" style="text;html=1;align=center;verticalAlign=middle;whiteSpace=wrap;rounded=0;" vertex="1" parent="1">
                    <mxGeometry x="342.5" y="700" width="135" height="30" as="geometry"/>
                </mxCell>
                <mxCell id="9S3SzsOETTPqG3k8FoBd-1" value="" style="shape=doubleArrow;direction=south;whiteSpace=wrap;html=1;arrowWidth=0.5139602661132813;arrowSize=0.2997314453125;" vertex="1" parent="1">
                    <mxGeometry x="380" y="540" width="60" height="70" as="geometry"/>
                </mxCell>
                <mxCell id="9S3SzsOETTPqG3k8FoBd-3" value="force" style="text;html=1;align=left;verticalAlign=middle;whiteSpace=wrap;rounded=0;" vertex="1" parent="1">
                    <mxGeometry x="440" y="560" width="65" height="30" as="geometry"/>
                </mxCell>
            </root>
        </mxGraphModel>
    </diagram>
    <diagram name="line-break2" id="zrM7w3NoBywrYjUoFGMS">
        <mxGraphModel dx="854" dy="997" grid="1" gridSize="10" guides="1" tooltips="1" connect="1" arrows="1" fold="1" page="1" pageScale="1" pageWidth="850" pageHeight="1100" math="0" shadow="0">
            <root>
                <mxCell id="jeUws6lrrbDGdJkFZp1n-0"/>
                <mxCell id="jeUws6lrrbDGdJkFZp1n-1" parent="jeUws6lrrbDGdJkFZp1n-0"/>
                <mxCell id="jeUws6lrrbDGdJkFZp1n-2" value="" style="rounded=1;whiteSpace=wrap;html=1;arcSize=3;" vertex="1" parent="jeUws6lrrbDGdJkFZp1n-1">
                    <mxGeometry x="230" y="390" width="260" height="530" as="geometry"/>
                </mxCell>
                <mxCell id="jeUws6lrrbDGdJkFZp1n-3" value="" style="rounded=1;whiteSpace=wrap;html=1;arcSize=7;" vertex="1" parent="jeUws6lrrbDGdJkFZp1n-1">
                    <mxGeometry x="240" y="400" width="240" height="140" as="geometry"/>
                </mxCell>
                <mxCell id="jeUws6lrrbDGdJkFZp1n-4" value="" style="rounded=1;whiteSpace=wrap;html=1;arcSize=2;" vertex="1" parent="jeUws6lrrbDGdJkFZp1n-1">
                    <mxGeometry x="240" y="610" width="240" height="300" as="geometry"/>
                </mxCell>
                <mxCell id="jeUws6lrrbDGdJkFZp1n-5" value="" style="rounded=1;whiteSpace=wrap;html=1;arcSize=7;" vertex="1" parent="jeUws6lrrbDGdJkFZp1n-1">
                    <mxGeometry x="250" y="620" width="220" height="80" as="geometry"/>
                </mxCell>
                <mxCell id="jeUws6lrrbDGdJkFZp1n-6" value="" style="rounded=1;whiteSpace=wrap;html=1;arcSize=7;" vertex="1" parent="jeUws6lrrbDGdJkFZp1n-1">
                    <mxGeometry x="250" y="710" width="220" height="80" as="geometry"/>
                </mxCell>
                <mxCell id="jeUws6lrrbDGdJkFZp1n-7" value="" style="rounded=1;whiteSpace=wrap;html=1;arcSize=7;" vertex="1" parent="jeUws6lrrbDGdJkFZp1n-1">
                    <mxGeometry x="250" y="800" width="220" height="80" as="geometry"/>
                </mxCell>
                <mxCell id="jeUws6lrrbDGdJkFZp1n-8" value="cohesive elements" style="text;html=1;align=center;verticalAlign=middle;whiteSpace=wrap;rounded=0;" vertex="1" parent="jeUws6lrrbDGdJkFZp1n-1">
                    <mxGeometry x="250" y="880" width="220" height="30" as="geometry"/>
                </mxCell>
                <mxCell id="jeUws6lrrbDGdJkFZp1n-9" value="" style="shape=doubleArrow;direction=south;whiteSpace=wrap;html=1;arrowWidth=0.5139602661132813;arrowSize=0.2997314453125;" vertex="1" parent="jeUws6lrrbDGdJkFZp1n-1">
                    <mxGeometry x="330" y="540" width="60" height="70" as="geometry"/>
                </mxCell>
                <mxCell id="jeUws6lrrbDGdJkFZp1n-10" value="force" style="text;html=1;align=left;verticalAlign=middle;whiteSpace=wrap;rounded=0;" vertex="1" parent="jeUws6lrrbDGdJkFZp1n-1">
                    <mxGeometry x="390" y="560" width="72.5" height="30" as="geometry"/>
                </mxCell>
            </root>
        </mxGraphModel>
    </diagram>
</mxfile>